<?xml version="1.0" standalone="no"?><!DOCTYPE svg PUBLIC "-//W3C//DTD SVG 1.1//EN" "http://www.w3.org/Graphics/SVG/1.1/DTD/svg11.dtd"><svg t="1706661682219" class="icon" viewBox="0 0 1260 1024" version="1.1" xmlns="http://www.w3.org/2000/svg" p-id="29561" data-spm-anchor-id="a313x.search_index.0.i25.432b3a81n7YD2K" xmlns:xlink="http://www.w3.org/1999/xlink" width="246.09375" height="200"><path d="M1107.101538 0C1191.778462 0 1260.307692 75.933538 1260.307692 169.668923v684.504615c0 93.735385-68.529231 169.826462-153.206154 169.826462H153.206154C68.844308 1024 0 947.908923 0 854.173538v-684.504615C0 75.933538 68.765538 0 153.284923 0h953.895385zM653.469538 335.320615L545.161846 715.539692l75.776 21.58277 108.307692-380.219077-75.776-21.58277z m-271.123692-15.28123l-179.593846 204.248615 179.593846 204.327385 59.076923-51.987693-133.828923-152.339692 133.907692-152.182154-59.155692-51.987692z m498.845539 0l-59.076923 52.066461 133.750153 152.182154-133.828923 152.260923 59.155693 51.987692 179.672615-204.248615-179.593846-204.248615z" fill="#4C6DEF" p-id="29562" data-spm-anchor-id="a313x.search_index.0.i24.432b3a81n7YD2K" class="selected"></path></svg>